<svg width="60" height="60" viewBox="0 0 60 60" fill="none" xmlns="http://www.w3.org/2000/svg">
    <path
        d="M22.5 25C22.5259 23.0189 23.3244 21.1263 24.7254 19.7253C26.1263 18.3244 28.019 17.5259 30 17.5C31.9811 17.5259 33.8737 18.3244 35.2747 19.7253C36.6756 21.1263 37.4741 23.0189 37.5 25C37.4741 26.981 36.6756 28.8737 35.2747 30.2746C33.8737 31.6756 31.9811 32.4741 30 32.5C28.019 32.4741 26.1263 31.6756 24.7254 30.2746C23.3244 28.8737 22.5259 26.981 22.5 25ZM30 47.5L40 50V42.3C36.9842 44.1161 33.5201 45.0514 30 45C26.48 45.0514 23.0158 44.1161 20 42.3V50M30 9.99997C28.0299 9.96402 26.0733 10.3314 24.2504 11.0794C22.4276 11.8275 20.7769 12.9405 19.4 14.35C17.9753 15.7284 16.8495 17.3852 16.0925 19.2174C15.3355 21.0496 14.9637 23.0179 15 25C14.974 26.9695 15.3508 28.9235 16.1075 30.742C16.8641 32.5606 17.9846 34.2052 19.4 35.575C20.7705 36.998 22.4183 38.1249 24.2414 38.886C26.0646 39.6471 28.0245 40.0262 30 40C31.9755 40.0262 33.9354 39.6471 35.7586 38.886C37.5818 38.1249 39.2295 36.998 40.6 35.575C42.0154 34.2052 43.1359 32.5606 43.8925 30.742C44.6492 28.9235 45.0261 26.9695 45 25C45.0364 23.0179 44.6645 21.0496 43.9076 19.2174C43.1506 17.3852 42.0247 15.7284 40.6 14.35C39.2231 12.9405 37.5725 11.8275 35.7496 11.0794C33.9267 10.3314 31.9701 9.96402 30 9.99997ZM50 25C49.9468 27.3997 49.4642 29.7704 48.575 32C47.774 34.2685 46.5621 36.3702 45 38.2V57.5L30 52.5L15 57.5V38.2C11.7642 34.5661 9.98377 29.8657 10 25C9.95596 22.3764 10.4501 19.7717 11.452 17.3466C12.4538 14.9215 13.9422 12.7275 15.825 10.9C17.6593 9.00021 19.8634 7.49655 22.3014 6.48179C24.7394 5.46704 27.3595 4.96272 30 4.99997C32.6405 4.96272 35.2606 5.46704 37.6986 6.48179C40.1366 7.49655 42.3408 9.00021 44.175 10.9C46.0579 12.7275 47.5462 14.9215 48.5481 17.3466C49.5499 19.7717 50.0441 22.3764 50 25Z"
    />
</svg>